<?xml version="1.0" encoding="UTF-8"?>
<svg id="Layer_2" xmlns="http://www.w3.org/2000/svg" viewBox="0 0 360 247.02">
  <defs>
    <style>
      .cls-1 {
        fill: #b8956e;
      }

      .cls-2 {
        fill: #fff;
      }

      .cls-3 {
        fill: #241f21;
      }

      .cls-4 {
        fill: none;
        stroke: #b8956e;
        stroke-miterlimit: 10;
        stroke-width: 2.02px;
      }
    </style>
  </defs>
  <g id="Layer_1-2" data-name="Layer_1">
    <g>
      <rect class="cls-3" x="105.04" y="4.71" width="151.12" height="151.12"/>
      <path class="cls-1" d="M236.89,55.13s-1.77.6-4.86,2.38c-3.08,1.76-7.41,4.7-12.39,9.08-5.03,4.32-10.61,10.16-16.48,17.32-2.97,3.57-5.99,7.55-9.41,11.59-3.36,4.08-7,8.3-11.05,12.53-4.05,4.23-8.66,8.33-13.67,12.13l-.23.18-.2.14-.12.08-.48.33-.97.67c-.64.45-1.29.89-1.94,1.34-.61.47-1.41.85-2.12,1.27-.73.41-1.47.83-2.2,1.25-2.98,1.55-6.05,2.89-9.29,3.98-6.46,2.19-13.42,3.46-20.6,3.57l-.76.02-.65-.02c-.44-.02-.85-.02-1.33-.06l-1.53-.19c-.51-.07-1-.21-1.5-.32-.99-.26-2.01-.65-3-1.24-.49-.28-.97-.7-1.42-1.09-.41-.49-.87-.93-1.16-1.54-.69-1.14-.89-2.5-.84-3.71.06-.6.11-1.21.29-1.75.08-.27.15-.56.24-.82l.32-.75c.89-1.99,2.17-3.58,3.54-5,1.38-1.43,2.91-2.63,4.51-3.71,1.59-1.11,3.28-2.01,4.99-2.89,3.45-1.68,7.09-2.94,10.81-3.87,7.44-1.87,15.26-2.39,22.95-1.96,3.9.23,7.79.69,11.67,1.65,3.85.99,7.74,2.4,11.18,4.92.43.32.85.63,1.25,1,.41.35.81.71,1.18,1.12.39.38.74.81,1.08,1.25l.26.33s.16.22.18.25l.1.15.39.6c1.21,1.93,1.97,4.19,1.98,6.55.06,2.36-.74,4.75-2.15,6.65-1.4,1.92-3.41,3.25-5.49,4.07l-.39.16c-.09.03-.07.04-.26.09l-.17.05c-.24.07-.44.14-.71.21-.56.14-1.12.27-1.61.35-1.02.2-2.03.31-3.04.41-2.02.18-4.04.21-6.05.11-4.02-.21-8.08-.95-11.89-2.65-3.65-1.69-7.09-3.91-10.06-6.66-3.01-2.73-5.39-6.22-6.9-10-1.52-3.8-2.1-7.87-2.01-11.81-.04-.99.12-1.96.17-2.94.05-.98.21-1.94.37-2.9l.23-1.44.06-.36.1-.43.17-.68c.23-.91.43-1.8.69-2.71,1.18-3.85,2.84-7.28,4.82-10.54,2-3.25,4.43-6.14,6.98-8.84,2.58-2.68,5.42-5.02,8.31-7.21,2.95-2.1,5.96-4.07,9.08-5.74,6.21-3.41,12.68-5.94,19.13-7.82,6.48-1.8,12.95-3,19.32-3.24,3.18-.16,6.33-.05,9.41.34,1.54.16,3.06.5,4.56.81.74.21,1.48.43,2.22.64.74.2,1.44.54,2.16.8.72.25,1.4.63,2.08.98l1.01.54.95.65.94.65c.08.06,0-.02.2.16l.1.09.19.18.39.36c.27.27.58.66.85.99.27.34.45.67.67,1.01,1.59,2.73,2.12,5.69,2.16,8.5.08,5.67-2.04,10.83-4.97,14.79-1.49,1.98-3.21,3.66-4.97,5.11-.9.7-1.79,1.39-2.73,1.96-.91.62-1.86,1.11-2.79,1.62-3.72,1.96-7.42,3.08-10.76,3.81-6.71,1.5-12.1,1.54-15.72,1.47-1.82.01-3.2-.14-4.14-.18-.93-.06-1.42-.09-1.42-.09l.03-.9s.48-.01,1.41-.04c.46-.01,1.04-.03,1.72-.05.68,0,1.47-.02,2.37-.09.89-.06,1.89-.12,2.98-.19,1.09-.12,2.28-.26,3.56-.4,1.28-.16,2.65-.39,4.1-.62,1.44-.33,2.99-.57,4.57-1.05,3.18-.86,6.63-2.07,10.05-3.97.84-.49,1.72-.97,2.54-1.57.85-.55,1.65-1.19,2.47-1.84,1.59-1.35,3.12-2.88,4.42-4.67,2.57-3.56,4.41-8.14,4.3-13.04-.04-2.42-.56-4.94-1.78-6.99-.16-.23-.32-.52-.48-.72-.18-.19-.29-.38-.5-.6l-.39-.35-.19-.18-.1-.09c.14.12-.02,0-.01,0l-.8-.54-.8-.54-.88-.45c-.59-.3-1.17-.63-1.82-.84-.64-.23-1.25-.53-1.92-.7-.67-.19-1.33-.38-2.01-.57-1.38-.27-2.77-.58-4.22-.71-2.87-.35-5.85-.43-8.88-.26-6.06.27-12.31,1.46-18.54,3.24-6.21,1.85-12.45,4.34-18.39,7.66-2.99,1.63-5.85,3.53-8.65,5.55-2.73,2.1-5.41,4.35-7.82,6.88-2.38,2.55-4.63,5.27-6.45,8.27-1.8,2.99-3.32,6.27-4.31,9.52-.24.87-.44,1.79-.66,2.69l-.16.68-.04.17s-.05.2-.02.08l-.05.33-.2,1.33c-.14.88-.29,1.77-.32,2.66-.04.89-.19,1.78-.14,2.66-.06,3.55.49,7.08,1.8,10.31,2.54,6.54,8.44,11.44,15,14.43,3.2,1.41,6.82,2.07,10.46,2.24,1.82.08,3.66.04,5.46-.13.9-.09,1.8-.21,2.67-.38.46-.08.83-.17,1.2-.26.2-.05.45-.13.67-.2l.17-.05c-.08.03.06-.03.08-.03l.28-.11c1.48-.59,2.8-1.48,3.66-2.68.87-1.19,1.36-2.63,1.32-4.12.02-.74-.16-1.49-.35-2.23-.15-.35-.26-.75-.42-1.07l-.24-.48-.12-.24-.2-.3c-.89-1.45-2.02-2.57-3.41-3.6-2.76-2.03-6.19-3.32-9.69-4.2-3.53-.86-7.21-1.3-10.86-1.51-7.41-.4-14.75.11-21.7,1.87-3.47.88-6.83,2.05-9.96,3.58-3.09,1.56-6.05,3.43-8.33,5.75-1.13,1.15-2.12,2.42-2.68,3.7l-.21.48-.13.46c-.12.32-.11.6-.16.88,0,.54.04,1.02.3,1.4.37.81,1.57,1.47,2.95,1.84.36.07.71.19,1.07.23l1.07.14c.39.04.86.04,1.28.06l.65.03c-.12,0,.06,0,.07,0h.16s.31-.02.31-.02c6.7-.08,13.25-1.26,19.3-3.29,3.03-1.01,5.94-2.28,8.66-3.68.66-.37,1.32-.74,1.98-1.11.66-.39,1.31-.68,1.96-1.16.65-.45,1.3-.89,1.95-1.34l.97-.66.48-.33.12-.08c.11-.08-.02.01.04-.03l.23-.18c4.91-3.7,9.31-7.6,13.25-11.69,7.91-8.18,14.28-16.58,20.39-23.76,6.12-7.25,12.18-12.97,17.62-17.11,5.44-4.14,10.17-6.78,13.55-8.22,1.67-.75,3.02-1.19,3.93-1.46.46-.13.81-.23,1.05-.28.24-.06.36-.08.36-.08l.23.87Z"/>
      <g>
        <path d="M31.11,199c.03.3.07.63.12.99.05.37.15.71.28,1.05.13.34.31.65.53.93.22.28.51.48.89.59.51.16.98.26,1.39.28.42.03.72.04.91.04s.28.08.28.24c0,.11-.07.19-.2.24-.14.06-.31.08-.52.08s-.59,0-1.11-.02c-.52-.01-1.1-.03-1.74-.04-.63-.01-1.25-.04-1.84-.06s-1.05-.05-1.37-.08c-.43-.05-.71-.11-.83-.16-.12-.05-.18-.12-.18-.2,0-.13.08-.23.24-.28.11-.03.17-.15.2-.38s.01-.51-.04-.83l-1.7-17.37h-.08l-8.57,17.54c-.38.75-.64,1.25-.79,1.47-.15.23-.3.34-.46.34s-.32-.11-.46-.32c-.15-.22-.4-.63-.75-1.25-.24-.43-.55-1-.93-1.7-.38-.7-.77-1.44-1.17-2.22-.4-.78-.8-1.54-1.17-2.26-.38-.73-.67-1.32-.89-1.78-.27-.54-.63-1.26-1.07-2.18-.44-.92-.9-1.84-1.35-2.79-.46-.94-.88-1.83-1.27-2.65-.39-.82-.67-1.41-.83-1.76h-.16l-1.37,15.52c-.03.27-.04.55-.04.85v.89c0,.51.28.83.85.97.3.08.57.14.81.16.24.03.43.04.57.04.19,0,.28.08.28.24,0,.22-.22.32-.65.32-.32,0-.67,0-1.03-.02s-.7-.03-1.01-.04c-.31-.01-.58-.03-.81-.04-.23-.01-.38-.02-.46-.02s-.24,0-.46.02c-.23.01-.49.03-.79.04-.3.01-.6.03-.91.04s-.59.02-.83.02c-.4,0-.61-.11-.61-.32,0-.16.12-.24.36-.24.13,0,.28,0,.42-.02.15-.01.36-.05.63-.1.59-.11.95-.43,1.07-.97s.22-1.13.3-1.78l2.59-22.43c.05-.4.19-.61.4-.61.3,0,.54.18.73.52l10.75,21.34,10.34-21.3c.19-.38.38-.57.57-.57.27,0,.44.31.53.93l2.42,21.09Z"/>
        <path d="M75.44,178.15c.22-.57.38-.93.49-1.09s.23-.24.36-.24c.19,0,.33.11.42.34.09.23.23.53.42.91.11.24.34.81.71,1.7.36.89.8,1.96,1.31,3.21.51,1.25,1.07,2.63,1.68,4.12.61,1.5,1.2,2.97,1.8,4.43s1.15,2.84,1.68,4.14c.53,1.31.98,2.39,1.35,3.25.32.78.63,1.4.91,1.86s.55.82.81,1.09c.26.27.49.46.71.56.22.11.42.19.61.24.27.08.53.14.77.16.24.03.46.04.65.04.11,0,.21.02.3.06.09.04.14.12.14.22s-.08.18-.24.22c-.16.04-.35.06-.57.06h-2.1c-.51,0-1.07,0-1.68-.02-.61-.01-1.22-.03-1.84-.06-.35-.03-.65-.05-.89-.06-.24-.01-.36-.07-.36-.18,0-.08.02-.13.06-.14.04-.01.1-.05.18-.1.11-.05.22-.15.34-.28.12-.13.11-.35-.02-.65l-3.19-7.88c-.08-.13-.19-.2-.32-.2h-8.2c-.16,0-.28.09-.36.28l-2.02,5.5c-.35.92-.52,1.69-.52,2.3,0,.35.13.59.38.73.26.14.53.2.83.2h.32c.24,0,.36.09.36.28s-.18.28-.52.28c-.22,0-.49,0-.81-.02-.32-.01-.65-.03-.97-.04-.32-.01-.61-.03-.87-.04-.26-.01-.44-.02-.55-.02-.08,0-.25,0-.51.02-.26.01-.55.03-.89.04-.34.01-.7.03-1.09.04-.39.01-.76.02-1.11.02-.46,0-.69-.09-.69-.28s.11-.28.32-.28c.14,0,.31,0,.52-.02.22-.01.39-.03.53-.06.81-.11,1.42-.45,1.84-1.01.42-.57.8-1.28,1.15-2.14l8.36-21.5ZM79.4,192.46c.11,0,.15-.08.12-.24l-3.52-9.42c-.22-.51-.42-.51-.61,0l-3.31,9.42c-.05.16-.01.24.12.24h7.19Z"/>
        <path d="M122.72,187.41v-5.25c0-.54,0-.96-.02-1.27-.01-.31-.03-.6-.06-.87-.05-.59-.16-1.04-.32-1.33-.16-.3-.54-.49-1.13-.57-.14-.03-.33-.05-.59-.06-.26-.01-.46-.02-.63-.02-.19,0-.28-.09-.28-.28s.19-.28.57-.28c.4,0,.83,0,1.29.02.46.01.89.02,1.29.02s.75,0,1.03.02.45.02.51.02c.11,0,.32,0,.63-.02s.68-.02,1.11-.02c.46,0,.94,0,1.46-.02.51-.01,1.04-.02,1.58-.02.89,0,1.93,0,3.13.02,1.2.01,2.45.13,3.76.34,1.31.22,2.6.6,3.88,1.15s2.44,1.35,3.5,2.4c.89.89,1.69,2.06,2.4,3.5.71,1.44,1.07,3.19,1.07,5.23,0,1.08-.11,2.1-.32,3.05-.22.96-.5,1.84-.85,2.65-.35.81-.76,1.54-1.23,2.2-.47.66-.95,1.25-1.43,1.76-.38.4-.87.83-1.47,1.29-.61.46-1.35.88-2.22,1.27-.88.39-1.9.72-3.07.99s-2.51.4-4.02.4c-.78,0-1.61-.02-2.49-.06-.88-.04-1.7-.09-2.49-.14-.78-.05-1.44-.1-1.98-.14-.54-.04-.85-.06-.93-.06-.05,0-.22,0-.48.02-.27.01-.59.02-.97.02-.38.03-.75.05-1.13.06-.38.01-.71.02-1.01.02-.38,0-.57-.09-.57-.28s.09-.28.28-.28c.16,0,.34-.01.55-.04.2-.03.38-.07.55-.12.35-.08.57-.28.67-.59.09-.31.18-.72.26-1.23.11-.7.17-1.7.18-2.99.01-1.29.02-2.77.02-4.45v-6.06ZM125.95,191.12v4.89c0,.65,0,1.2.02,1.66s.02.77.02.93c.03.43.07.9.12,1.41.05.51.15.86.28,1.05.11.16.28.32.53.49.24.16.59.31,1.03.44.44.14,1.02.24,1.72.32s1.58.12,2.63.12c1.64,0,3.17-.26,4.59-.79,1.41-.52,2.66-1.3,3.74-2.32.46-.43.86-.95,1.21-1.55.35-.61.64-1.27.87-1.98.23-.71.4-1.47.52-2.26.12-.8.18-1.58.18-2.36,0-1.08-.11-2.07-.32-2.97-.22-.9-.49-1.71-.81-2.42-.32-.71-.69-1.33-1.09-1.86-.4-.52-.78-.97-1.13-1.35-.84-.83-1.7-1.51-2.61-2.02-.9-.51-1.84-.9-2.81-1.17-.97-.27-1.97-.44-2.99-.52-1.02-.08-2.06-.12-3.11-.12-.35,0-.75.03-1.21.08-.46.05-.77.11-.93.16-.3.11-.44.34-.44.69v11.48Z"/>
        <path d="M186.12,193.47c0,1.67,0,3.15.02,4.45.01,1.29.06,2.29.14,2.99.05.51.15.92.28,1.23.13.31.47.51,1.01.59.27.05.57.09.89.12.32.03.57.04.73.04.19,0,.28.09.28.28s-.19.28-.57.28c-.49,0-.98,0-1.5-.02s-.98-.03-1.41-.04c-.43-.01-.79-.03-1.07-.04-.28-.01-.44-.02-.46-.02-.05,0-.22,0-.48.02-.27.01-.59.03-.95.04-.36.01-.73.03-1.11.04-.38.01-.7.02-.97.02-.38,0-.57-.09-.57-.28s.09-.28.28-.28c.16,0,.34-.01.55-.04.2-.03.38-.07.55-.12.35-.08.58-.28.69-.59s.19-.72.24-1.23c.08-.7.13-1.7.16-2.99.03-1.29.04-2.77.04-4.45v-11.32c0-.54,0-.96-.02-1.27-.01-.31-.03-.6-.06-.87-.05-.59-.16-1.03-.32-1.31-.16-.28-.43-.46-.81-.54-.22-.05-.42-.09-.61-.1-.19-.01-.35-.02-.49-.02-.19,0-.28-.09-.28-.28s.19-.28.57-.28c.3,0,.64,0,1.03.02s.76.02,1.11.02c.38,0,.7,0,.97.02.27.01.43.02.48.02.03,0,.18,0,.46-.02.28-.01.6-.02.95-.02.38,0,.76,0,1.15-.02s.72-.02.99-.02c.38,0,.57.09.57.28s-.09.28-.28.28h-.4c-.11,0-.27.03-.49.08-.48.11-.8.3-.95.57-.15.27-.25.71-.3,1.33,0,.27,0,.56-.02.87-.01.31-.02.74-.02,1.27v11.32Z"/>
        <path d="M225.6,203.69c-.94-.13-1.78-.38-2.5-.73-.24-.13-.39-.27-.45-.4-.05-.13-.08-.43-.08-.89,0-.86.03-1.61.08-2.24.06-.63.09-1.1.12-1.39,0-.38.09-.57.28-.57.22,0,.32.14.32.4,0,.14,0,.32.02.55s.05.46.1.71c.14.62.39,1.15.77,1.58.38.43.83.78,1.35,1.05.52.27,1.09.47,1.7.59.61.12,1.21.18,1.8.18,1.78,0,3.11-.44,4-1.31.89-.88,1.33-1.96,1.33-3.25,0-.62-.09-1.17-.26-1.66-.18-.48-.44-.95-.81-1.39-.37-.44-.83-.9-1.39-1.35-.56-.46-1.24-.98-2.02-1.58l-1.62-1.21c-1.91-1.43-3.24-2.71-3.98-3.86-.74-1.14-1.11-2.31-1.11-3.5,0-1,.19-1.9.56-2.71.38-.81.92-1.49,1.62-2.04s1.53-.98,2.49-1.27c.95-.3,2.03-.44,3.21-.44.7,0,1.38.04,2.04.12.66.08,1.21.18,1.64.28.35.08.61.13.79.14s.33.02.47.02c.24,0,.36.08.36.24,0,.08-.03.41-.08.99s-.08,1.46-.08,2.65c0,.51-.09.77-.28.77-.14,0-.22-.04-.24-.12-.03-.08-.06-.19-.08-.32-.03-.22-.09-.51-.2-.87-.11-.36-.22-.64-.32-.83-.06-.11-.18-.26-.37-.44-.19-.19-.46-.38-.83-.57-.37-.19-.82-.35-1.38-.49-.55-.13-1.23-.2-2.04-.2-1.29,0-2.41.32-3.33.95-.93.63-1.39,1.56-1.39,2.77,0,.54.07,1.04.22,1.5s.4.91.77,1.35c.36.44.83.9,1.41,1.37.58.47,1.31,1,2.2,1.6l1.01.69c1.08.73,1.98,1.43,2.73,2.12.74.69,1.34,1.36,1.8,2.02.46.66.79,1.33.99,2.02.2.69.3,1.39.3,2.12,0,1.02-.24,2.05-.71,3.07s-1.34,1.95-2.61,2.79c-.75.49-1.64.81-2.67.97-1.02.16-2.02.24-2.99.24-.83,0-1.72-.07-2.67-.2Z"/>
        <path d="M271.52,185.97c.55-1.58,1.4-3.03,2.55-4.36s2.61-2.44,4.38-3.31c1.78-.88,3.89-1.31,6.35-1.31,1.99,0,3.85.3,5.58.89,1.72.59,3.21,1.45,4.47,2.57,1.25,1.12,2.24,2.47,2.95,4.06.71,1.59,1.07,3.38,1.07,5.37s-.34,3.73-1.03,5.44c-.69,1.71-1.65,3.2-2.89,4.47s-2.74,2.27-4.5,3.01c-1.77.74-3.71,1.11-5.84,1.11-2.42,0-4.51-.41-6.26-1.23-1.75-.82-3.19-1.88-4.32-3.19-1.13-1.31-1.97-2.76-2.51-4.36-.54-1.6-.81-3.17-.81-4.71,0-1.37.28-2.85.83-4.42ZM275.22,194.86c.57,1.6,1.35,2.97,2.36,4.1,1.01,1.13,2.2,2,3.56,2.61,1.36.61,2.85.91,4.47.91.81,0,1.76-.14,2.85-.42s2.14-.84,3.15-1.68,1.86-2.01,2.57-3.54,1.05-3.52,1.05-6c0-2.05-.29-3.86-.87-5.44s-1.36-2.89-2.34-3.94c-.98-1.05-2.12-1.84-3.39-2.38-1.28-.54-2.62-.81-4.02-.81-1.48,0-2.85.24-4.1.71-1.25.47-2.33,1.17-3.23,2.1s-1.61,2.1-2.12,3.49c-.51,1.4-.77,3.03-.77,4.89,0,1.99.28,3.79.85,5.39Z"/>
        <path d="M336.36,198.76c.03.7.07,1.29.12,1.76.05.47.13.86.24,1.17.11.31.24.54.4.69s.37.25.61.3c.32.08.66.14,1.01.16.35.03.61.04.77.04.19,0,.28.09.28.28s-.22.28-.65.28c-1.02,0-1.86-.02-2.53-.06-.66-.04-1.07-.06-1.23-.06s-.57.02-1.23.06c-.66.04-1.39.06-2.2.06-.38,0-.57-.09-.57-.28s.09-.28.28-.28c.14,0,.35-.01.63-.04.28-.03.56-.08.83-.16.22-.05.39-.16.52-.32.13-.16.23-.4.3-.73.07-.32.11-.75.14-1.27.03-.53.04-1.18.04-1.96v-19.68c0-.7.05-1.17.14-1.39s.21-.34.35-.34c.22,0,.45.13.71.38l.67.67c.13.13.54.56,1.21,1.27s1.52,1.61,2.55,2.69,2.18,2.29,3.48,3.64c1.29,1.35,2.63,2.72,4,4.12.89.92,1.77,1.84,2.65,2.77.87.93,1.7,1.8,2.46,2.61.77.81,1.44,1.52,2.02,2.14.58.62,1,1.07,1.27,1.33l-.36-17.22c-.03-1.1-.12-1.88-.28-2.34-.16-.46-.51-.74-1.05-.85-.32-.05-.66-.09-1.01-.12-.35-.03-.59-.04-.73-.04s-.22-.04-.24-.12c-.03-.08-.04-.15-.04-.2,0-.16.23-.24.69-.24.81,0,1.58.01,2.3.04.73.03,1.2.04,1.41.04s.59-.01,1.13-.04c.54-.03,1.17-.04,1.9-.04.43,0,.65.08.65.24,0,.05-.03.12-.1.2s-.17.12-.3.12h-.32c-.13,0-.31.03-.52.08-.3.06-.52.15-.69.28s-.28.32-.36.54-.14.52-.16.87c-.03.35-.04.78-.04,1.29l-.08,20.12c0,.57,0,1.01-.02,1.33s-.03.57-.04.75c-.02.17-.04.28-.08.32-.04.04-.09.06-.14.06-.08,0-.18-.03-.28-.08-.11-.05-.26-.15-.47-.3s-.46-.36-.77-.63c-.31-.27-.71-.63-1.19-1.09-.08-.08-.44-.42-1.07-1.03s-1.39-1.36-2.28-2.26c-.89-.9-1.86-1.88-2.91-2.95-1.05-1.06-2.05-2.08-2.99-3.05-1.02-1.08-2.03-2.13-3.01-3.17-.98-1.04-1.89-1.99-2.73-2.87-.84-.87-1.56-1.64-2.16-2.28s-1.04-1.12-1.31-1.41l.4,16.2Z"/>
      </g>
      <path class="cls-2" d="M195.22,96.57c.06.91.18,1.88.36,2.91s.44,2.04.77,3.01.8,1.86,1.41,2.67,1.4,1.37,2.37,1.7c1.33.46,2.53.72,3.6.78,1.06.07,1.83.1,2.32.1s.73.16.73.48-.18.55-.55.68c-.36.13-.82.19-1.36.19-.49,0-1.4-.01-2.73-.05-1.34-.03-2.79-.08-4.37-.15-1.58-.06-3.11-.13-4.6-.19-1.49-.07-2.66-.13-3.5-.19-1.03-.13-1.72-.26-2.05-.39-.33-.13-.5-.33-.5-.58,0-.39.21-.62.64-.68.24-.06.4-.44.46-1.11s.03-1.47-.09-2.38l-4.37-50.09h-.27l-22.3,50.48c-.97,2.14-1.61,3.53-1.91,4.18-.3.64-.67.97-1.09.97-.3,0-.64-.3-1-.92s-.97-1.8-1.82-3.55c-.61-1.16-1.47-2.96-2.6-5.38s-2.26-4.87-3.41-7.33-2.18-4.65-3.09-6.56c-.91-1.91-1.43-2.99-1.55-3.25-.12-.26-.49-1.07-1.09-2.43-.61-1.36-1.34-2.99-2.18-4.9-.85-1.91-1.75-3.96-2.69-6.17-.94-2.2-1.84-4.27-2.68-6.21-.85-1.94-1.58-3.64-2.18-5.1-.61-1.46-1-2.41-1.18-2.86h-.36l-3.64,45.05c-.06.78-.09,1.59-.09,2.43v2.52c0,.72.23,1.36.68,1.94.45.58,1.02.94,1.68,1.07.79.19,1.49.33,2.09.39.61.07,1.06.1,1.37.1.48,0,.73.16.73.48,0,.58-.55.87-1.64.87-.85,0-1.73-.01-2.64-.05-.91-.03-1.77-.07-2.59-.09-.82-.03-1.52-.07-2.09-.1-.58-.03-.96-.05-1.14-.05s-.58.01-1.18.05-1.29.07-2.05.1c-.76.03-1.53.06-2.32.09s-1.49.05-2.09.05c-1.03,0-1.55-.29-1.55-.87,0-.32.3-.48.91-.48.36,0,.74-.01,1.14-.05.39-.03.92-.11,1.59-.24,1.52-.32,2.46-1.28,2.82-2.86.36-1.58.64-3.31.82-5.2l6.55-63.3c.12-1.16.46-1.74,1-1.74.49,0,.94.48,1.37,1.46l27.85,61.06,26.76-60.96c.42-1.04.88-1.55,1.36-1.55.55,0,.91.87,1.09,2.62l6.1,59.61Z"/>
      <g>
        <path class="cls-1" d="M73.81,230.9v-5.25c0-.54,0-.96-.02-1.27-.01-.31-.03-.6-.06-.87-.05-.59-.16-1.04-.32-1.33-.16-.3-.54-.49-1.13-.57-.14-.03-.33-.05-.59-.06-.26-.01-.46-.02-.63-.02-.19,0-.28-.09-.28-.28s.19-.28.57-.28c.4,0,.83,0,1.29.02.46.01.88.02,1.25.02.4,0,.75,0,1.03.02s.46.02.55.02c.19,0,.49,0,.89-.02.4-.01.85-.02,1.33-.02s.98,0,1.47-.02c.5-.01.95-.02,1.35-.02,1.13,0,2.09.07,2.89.22.79.15,1.45.33,1.98.55.52.22.94.43,1.23.65.3.22.53.39.69.52.4.38.8.92,1.19,1.64.39.71.59,1.54.59,2.49,0,1.24-.22,2.36-.67,3.37-.44,1.01-1.07,1.87-1.88,2.59s-1.77,1.27-2.89,1.66c-1.12.39-2.36.59-3.74.59h-.53c-.22,0-.38-.01-.48-.04-.08,0-.16-.03-.24-.1s-.12-.14-.12-.22c0-.13.06-.23.18-.28.12-.06.37-.08.75-.08.97,0,1.85-.14,2.65-.42.79-.28,1.49-.67,2.08-1.17.59-.5,1.05-1.09,1.37-1.76s.49-1.4.49-2.18c0-.27-.01-.61-.04-1.01-.03-.4-.11-.84-.24-1.31-.14-.47-.34-.95-.61-1.45-.27-.5-.65-.98-1.13-1.43-.46-.46-.93-.8-1.41-1.03-.48-.23-.94-.39-1.37-.49s-.83-.14-1.21-.14h-.81c-.3,0-.65.03-1.07.08-.42.06-.72.11-.91.16-.19.03-.28.24-.28.65v13.98c0,1.67,0,3.15.02,4.45.01,1.29.06,2.29.14,2.99.05.51.17.92.34,1.23.17.31.53.51,1.07.59.24.05.53.09.85.12.32.03.57.04.73.04.19,0,.28.09.28.28s-.19.28-.57.28c-.49,0-.98,0-1.5-.02s-.98-.03-1.39-.04c-.42-.01-.77-.03-1.07-.04-.3-.01-.46-.02-.49-.02s-.18,0-.44.02c-.27.01-.59.03-.95.04-.36.01-.74.03-1.13.04s-.72.02-.99.02c-.38,0-.57-.09-.57-.28s.09-.28.28-.28c.16,0,.34-.01.55-.04.2-.03.38-.07.55-.12.35-.08.57-.28.67-.59.09-.31.18-.72.26-1.23.11-.7.17-1.7.18-2.99.01-1.29.02-2.77.02-4.45v-6.06Z"/>
        <path class="cls-1" d="M126.7,221.64c.22-.57.38-.93.49-1.09s.23-.24.36-.24c.19,0,.33.11.42.34.09.23.23.53.42.91.11.24.34.81.71,1.7.36.89.8,1.96,1.31,3.21.51,1.25,1.07,2.63,1.68,4.12.61,1.5,1.2,2.97,1.8,4.43s1.15,2.84,1.68,4.14c.53,1.31.98,2.39,1.35,3.25.32.78.63,1.4.91,1.86s.55.82.81,1.09c.26.27.49.46.71.56.22.11.42.19.61.24.27.08.53.14.77.16.24.03.46.04.65.04.11,0,.21.02.3.06.09.04.14.12.14.22s-.08.18-.24.22c-.16.04-.35.06-.57.06h-2.1c-.51,0-1.07,0-1.68-.02-.61-.01-1.22-.03-1.84-.06-.35-.03-.65-.05-.89-.06-.24-.01-.36-.07-.36-.18,0-.08.02-.13.06-.14.04-.01.1-.05.18-.1.11-.05.22-.15.34-.28.12-.13.11-.35-.02-.65l-3.19-7.88c-.08-.13-.19-.2-.32-.2h-8.2c-.16,0-.28.09-.36.28l-2.02,5.5c-.35.92-.52,1.69-.52,2.3,0,.35.13.59.38.73.26.14.53.2.83.2h.32c.24,0,.36.09.36.28s-.18.28-.52.28c-.22,0-.49,0-.81-.02-.32-.01-.65-.03-.97-.04-.32-.01-.61-.03-.87-.04-.26-.01-.44-.02-.55-.02-.08,0-.25,0-.51.02-.26.01-.55.03-.89.04-.34.01-.7.03-1.09.04-.39.01-.76.02-1.11.02-.46,0-.69-.09-.69-.28s.11-.28.32-.28c.14,0,.31,0,.52-.02.22-.01.39-.03.53-.06.81-.11,1.42-.45,1.84-1.01.42-.57.8-1.28,1.15-2.14l8.36-21.5ZM130.66,235.95c.11,0,.15-.08.12-.24l-3.52-9.42c-.22-.51-.42-.51-.61,0l-3.31,9.42c-.05.16-.01.24.12.24h7.19Z"/>
        <path class="cls-1" d="M171.96,230.9v-5.25c0-.54,0-.96-.02-1.27-.01-.31-.03-.6-.06-.87-.05-.59-.16-1.04-.32-1.33-.16-.3-.54-.49-1.13-.57-.14-.03-.33-.05-.59-.06-.26-.01-.46-.02-.63-.02-.19,0-.28-.09-.28-.28s.19-.28.57-.28c.4,0,.84,0,1.31.02s.91.02,1.31.02.75,0,1.05.02c.3.01.47.02.52.02.08,0,.31,0,.69-.02s.8-.02,1.25-.02.92,0,1.39-.02.84-.02,1.11-.02c1.13,0,2.28.09,3.45.26s2.23.59,3.17,1.23c.22.16.46.38.75.66.28.28.55.63.81,1.03.26.4.47.85.65,1.35.18.5.26,1.04.26,1.64,0,1.27-.32,2.54-.95,3.82-.63,1.28-1.77,2.62-3.41,4.02,1.46,1.83,2.8,3.5,4.04,5.01s2.37,2.8,3.39,3.88c.94.97,1.72,1.6,2.34,1.88.62.28,1.16.45,1.62.51.35.06.62.09.81.1.19.02.34.02.44.02.22,0,.32.09.32.28,0,.11-.06.18-.18.22-.12.04-.34.06-.67.06h-2.22c-1.02,0-1.8-.05-2.32-.16-.52-.11-1.02-.28-1.47-.53-.78-.4-1.53-1.02-2.24-1.86-.71-.83-1.58-1.9-2.61-3.19-.38-.46-.75-.94-1.13-1.43-.38-.5-.73-.97-1.07-1.41-.34-.44-.65-.85-.93-1.23-.28-.38-.52-.69-.71-.93-.14-.13-.3-.2-.49-.2l-4.53-.08c-.16,0-.24.09-.24.28v.81c0,1.67,0,3.15.02,4.43.01,1.28.06,2.27.14,2.97.05.51.17.92.34,1.23.17.31.53.51,1.07.59.24.05.53.09.85.12.32.03.57.04.73.04.19,0,.28.09.28.28s-.19.28-.57.28c-.49,0-.98,0-1.47-.02-.5-.01-.96-.03-1.37-.04-.42-.01-.77-.03-1.05-.04-.28-.01-.44-.02-.46-.02-.54.03-.99.05-1.35.06-.36.01-.75.03-1.15.04-.4.01-.74.02-1.01.02-.38,0-.57-.09-.57-.28s.09-.28.28-.28c.16,0,.34-.01.55-.04.2-.03.38-.07.55-.12.35-.08.57-.28.67-.59.09-.31.18-.72.26-1.23.11-.7.17-1.7.18-2.99.01-1.29.02-2.77.02-4.45v-6.06ZM175.03,233.81c0,.19.08.34.24.45.13.08.34.15.61.2.27.06.59.11.95.16.36.06.75.09,1.15.12.4.03.81.04,1.21.04.43,0,.88-.03,1.33-.08.46-.05.9-.23,1.33-.52.62-.4,1.13-1.05,1.54-1.94.4-.89.61-1.99.61-3.31,0-2.15-.55-3.82-1.64-4.99s-2.59-1.76-4.51-1.76c-.54,0-1.05.02-1.54.06-.48.04-.82.09-1.01.14-.19.11-.28.24-.28.4v11.03Z"/>
        <path class="cls-1" d="M224.57,230.9v-5.25c0-.54,0-.96-.02-1.27-.01-.31-.03-.6-.06-.87-.05-.59-.16-1.04-.32-1.33-.16-.3-.54-.49-1.13-.57-.14-.03-.33-.05-.59-.06s-.47-.02-.63-.02c-.19,0-.28-.09-.28-.28s.19-.28.57-.28c.4,0,.83,0,1.27.02s.85.02,1.23.02c.4,0,.74,0,1.01.02.27.01.43.02.48.02.08,0,.26,0,.55-.02s.6-.02.95-.02.71,0,1.07-.02.68-.02.95-.02c.38,0,.57.09.57.28s-.09.28-.28.28h-.4c-.11,0-.27.03-.49.08-.46.11-.77.3-.93.57-.16.27-.27.71-.32,1.33-.03.27-.05.56-.06.87-.01.31-.02.74-.02,1.27v7.31h.16c.08-.11.32-.36.71-.75.39-.39.86-.85,1.39-1.39l1.74-1.74,1.8-1.8c.58-.58,1.1-1.1,1.58-1.56.47-.46.81-.81,1.03-1.05.51-.51.96-.98,1.35-1.39.39-.42.59-.77.59-1.07,0-.4-.15-.63-.44-.69-.22-.06-.32-.16-.32-.32s.13-.24.4-.24c.38,0,.81.01,1.29.04.49.03.94.04,1.37.04.06,0,.22,0,.51-.02.28-.01.6-.02.95-.02.38,0,.75,0,1.11-.02s.65-.02.87-.02c.35,0,.52.08.52.24,0,.19-.12.28-.36.28-.27,0-.58.05-.93.14-.35.09-.7.21-1.05.34-.73.32-1.33.7-1.82,1.13-.49.43-1.12,1.02-1.9,1.78-.16.14-.44.39-.83.77-.39.38-.86.82-1.39,1.33-.54.51-1.1,1.05-1.7,1.62-.59.56-1.15,1.1-1.66,1.62l-1.35,1.35-.79.79c.16.16.48.49.95.97.47.48,1.03,1.05,1.68,1.7s1.33,1.34,2.06,2.08c.73.74,1.43,1.44,2.1,2.1.67.66,1.28,1.25,1.82,1.78.54.52.93.9,1.17,1.11.75.67,1.36,1.22,1.82,1.64.46.42.86.76,1.21,1.01.35.26.67.47.97.65s.66.34,1.09.51c.46.19.9.32,1.33.38s.71.1.85.1c.3,0,.45.09.45.28,0,.08-.06.15-.16.2-.11.06-.31.08-.61.08h-3.15c-.35,0-.73-.03-1.13-.08-.46-.03-.87-.1-1.23-.22-.36-.12-.71-.27-1.05-.44-.34-.18-.66-.38-.99-.63s-.67-.51-1.05-.81c-.27-.22-.68-.59-1.23-1.13-.55-.54-1.19-1.16-1.9-1.88s-1.46-1.48-2.24-2.28c-.78-.81-1.52-1.59-2.22-2.34s-1.34-1.44-1.92-2.06c-.58-.62-1-1.1-1.27-1.45h-.16v3.35c0,1.67,0,3.15.02,4.45.01,1.29.06,2.29.14,2.99.05.51.16.92.32,1.23s.51.51,1.05.59c.24.05.49.09.75.12.26.03.47.04.63.04.19,0,.28.09.28.28s-.19.28-.57.28c-.43,0-.88,0-1.33-.02s-.89-.03-1.29-.04c-.4-.01-.74-.03-1.01-.04-.27-.01-.44-.02-.52-.02s-.26,0-.52.02c-.27.01-.58.03-.93.04-.35.01-.71.03-1.09.04-.38.01-.7.02-.97.02-.38,0-.57-.09-.57-.28s.09-.28.28-.28c.16,0,.34-.01.54-.04.2-.03.38-.07.55-.12.35-.08.57-.28.67-.59.09-.31.18-.72.26-1.23.11-.7.17-1.7.18-2.99.01-1.29.02-2.77.02-4.45v-6.06Z"/>
        <path class="cls-1" d="M276.94,230.9v-5.25c0-.54,0-.96-.02-1.27-.01-.31-.03-.6-.06-.87-.05-.59-.16-1.04-.32-1.33-.16-.3-.54-.49-1.13-.57-.14-.03-.33-.05-.59-.06s-.47-.02-.63-.02c-.19,0-.28-.09-.28-.28s.19-.28.57-.28c.4,0,.83,0,1.29.02s.89.02,1.29.02.75,0,1.03.02c.28.01.45.02.51.02h8.49c.35-.03.67-.06.97-.1.3-.04.51-.07.65-.1.08-.03.16-.06.24-.1.08-.04.16-.06.24-.06.11,0,.16.11.16.32,0,.14-.04.32-.1.55s-.13.59-.18,1.07c0,.08,0,.22-.02.43-.01.2-.03.42-.06.66-.03.24-.05.47-.06.69-.01.22-.03.38-.06.48-.03.08-.07.16-.12.24-.05.08-.12.12-.2.12-.19,0-.28-.15-.28-.45,0-.13-.01-.32-.04-.54s-.08-.45-.16-.67c-.05-.13-.13-.26-.22-.36-.09-.11-.24-.2-.43-.28-.19-.08-.43-.15-.73-.22-.3-.07-.69-.13-1.17-.18-.16-.03-.5-.05-1.01-.06-.51-.01-1.06-.03-1.64-.04-.58-.01-1.11-.02-1.59-.02h-.89c-.14,0-.2.12-.2.36v9.33c0,.24.07.37.2.37h2.83c.67,0,1.31,0,1.9-.02.59-.01,1-.03,1.21-.06.43-.06.78-.1,1.05-.14.27-.04.5-.15.69-.34.3-.3.47-.44.52-.44.14,0,.2.09.2.28,0,.11-.03.31-.1.61-.07.3-.13.73-.18,1.29-.05.35-.09.77-.12,1.27-.03.5-.04.81-.04.95s-.02.28-.06.42c-.04.15-.13.22-.26.22-.16,0-.24-.11-.24-.32,0-.16,0-.34-.02-.52-.01-.19-.06-.39-.14-.61-.06-.24-.2-.46-.42-.65-.23-.19-.69-.32-1.39-.4-.24-.03-.63-.05-1.17-.08s-1.09-.05-1.66-.06c-.57-.01-1.09-.02-1.58-.02h-.97c-.16,0-.24.08-.24.24v8.73c.03.57.09,1.03.2,1.39.11.36.32.65.63.85.31.2.73.34,1.27.4.54.07,1.25.1,2.14.1.46,0,1.05-.01,1.78-.04.73-.03,1.32-.14,1.78-.32.46-.22.81-.49,1.07-.83s.44-.85.54-1.56c.08-.35.2-.52.37-.52.11,0,.17.06.2.16.03.11.04.23.04.36,0,.06-.01.22-.04.51-.03.28-.07.61-.12.97-.06.36-.11.71-.16,1.05-.06.34-.11.6-.16.79-.06.22-.13.38-.22.51-.09.12-.21.21-.34.26-.13.05-.32.09-.54.1-.23.01-.52.02-.87.02-1.35,0-2.53-.01-3.56-.04-1.02-.03-1.9-.06-2.63-.08-.76-.06-1.37-.08-1.86-.08h-1.62c-.3,0-.63.01-1.01.04-.35.03-.71.05-1.07.06s-.69.02-.99.02c-.38,0-.57-.09-.57-.28s.09-.28.28-.28c.16,0,.34-.02.54-.06.2-.04.38-.07.55-.1.35-.05.57-.24.67-.57.09-.32.18-.74.26-1.25.11-.7.17-1.7.18-2.99.01-1.29.02-2.77.02-4.45v-6.06Z"/>
      </g>
      <rect class="cls-4" x="101.34" y="1.01" width="158.52" height="158.52"/>
      <path class="cls-1" d="M187.63,57.3c1.96-.77,3.96-1.47,5.98-2.12v-3.51c-2.44.74-4.85,1.57-7.22,2.48-1.01.4-2.01.82-3.01,1.26v3.73c1.4-.65,2.82-1.27,4.25-1.85Z"/>
      <path class="cls-1" d="M150.13,83.18c-2.2,4.02-3.72,8.45-4.55,12.98l3.22,4.37c.04-.56.07-1.12.14-1.69.59-4.89,2.09-9.57,4.42-13.91,1.14-2.15,2.49-4.19,3.99-6.13l-2.21-3c-1.88,2.3-3.59,4.74-5.01,7.38Z"/>
      <path class="cls-1" d="M194.7,92.75s-.48-.08-1.3-.31c-.81-.24-1.98-.59-3.31-1.22-.66-.32-1.37-.69-2.08-1.16-.71-.47-1.44-1-2.08-1.71-.64-.69-1.23-1.52-1.59-2.49-.36-.97-.43-2.06-.27-3.08.15-1.04.59-1.98,1.06-2.85.5-.86,1.1-1.61,1.71-2.31.32-.33.63-.66.94-.98.33-.29.65-.58.97-.86.62-.57,1.28-1.02,1.84-1.48.58-.44,1.15-.79,1.64-1.12.49-.33.94-.58,1.3-.8.73-.42,1.15-.67,1.15-.67,0,0-.38.3-1.04.83-.33.26-.75.56-1.19.94-.45.38-.95.8-1.51,1.26-.52.49-1.13.98-1.7,1.57-.29.29-.58.59-.88.9-.28.32-.57.65-.86.98-.56.68-1.08,1.43-1.54,2.21-.42.8-.8,1.64-.91,2.53-.15.87-.1,1.77.19,2.59.3.82.77,1.57,1.33,2.22,1.13,1.3,2.53,2.26,3.76,2.96,1.25.7,2.33,1.23,3.11,1.54.78.33,1.23.49,1.23.49Z"/>
      <path class="cls-2" d="M196.35,102.49c-.33-.97-.59-1.98-.77-3.01-.18-1.03-.3-2.01-.36-2.91l-1.24-12.07h-7.51l1.65,18.87c.02.14.02.26.04.39h8.75c-.21-.41-.4-.82-.55-1.27Z"/>
    </g>
  </g>
</svg>